<svg width="122" height="51" viewBox="0 0 122 51" fill="none" xmlns="http://www.w3.org/2000/svg">
<path d="M33.7953 50.9637C29.9267 50.9637 26.9902 50.003 24.986 48.0816C23.0283 46.1602 22.0495 43.4187 22.0495 39.8571V4.0068L32.2572 0.913832L31.2783 37.8185C31.2783 39.3182 31.6046 40.4663 32.2572 41.263C32.9097 42.0128 33.8652 42.3877 35.1237 42.3877C35.5898 42.3877 36.1025 42.294 36.6618 42.1065C41.6253 40.2347 49.0008 13.7075 49.6068 13.2857L59.1041 14.9726C57.9855 15.8161 53.8457 36.6593 41.6253 50.1199C40.5837 51.2672 35.147 50.9637 33.7953 50.9637ZM0 9.63037V0.913832H32.2572L32.026 9.63037H0Z" fill="#4D1653"/>
<path d="M51.4945 50.1201V43.0204C51.4945 41.6613 51.914 40.1617 52.753 38.5215C53.592 36.8813 54.7572 35.2411 56.2487 33.6009C57.7403 31.9607 59.4882 30.4376 61.4924 29.0317L68.9034 23.6893C69.9289 22.9864 70.8844 22.1897 71.77 21.2993C72.7022 20.4089 73.4479 19.4482 74.0072 18.4172C74.6132 17.3394 74.9161 16.3084 74.9161 15.3242C74.9161 14.1058 74.6132 13.0045 74.0072 12.0204C73.4479 11.0363 72.6089 10.263 71.4903 9.70067C70.3717 9.13831 68.9967 8.85713 67.3653 8.85713C65.967 8.85713 64.7085 9.13831 63.5899 9.70067C62.5178 10.263 61.6322 11.0128 60.9331 11.9501C60.2339 12.8874 59.3838 13.8947 59.1041 14.9726L49.6068 13.2857C50.0729 10.9425 51.075 8.76341 52.6131 6.74829C54.1513 4.73318 56.1555 3.1164 58.6259 1.89796C61.1428 0.632653 63.9861 0 67.1555 0C70.7911 0 73.914 0.656084 76.5242 1.96825C79.1344 3.28042 81.1386 5.08465 82.5369 7.38094C83.9818 9.63038 84.7043 12.2547 84.7043 15.254C84.7043 18.3001 83.8653 21.0181 82.1873 23.4081C80.556 25.7513 78.2954 27.9539 75.4056 30.0158L68.7636 34.8662C67.4119 35.8034 66.2467 36.8344 65.2678 37.9591C64.289 39.0839 63.5433 40.3257 63.0306 41.6848H80.9526V50.1201H51.4945Z" fill="#4D1653"/>
<path d="M104.975 50.1199C102.738 50.1199 100.605 50.1199 97.3278 50.1199C94.3494 50.1199 96.2354 50.1201 91.6568 50.1201C87.496 50.1201 84.2187 50.1199 80.9526 50.1201V41.6848C84.8743 41.6848 97.3278 41.6145 99.4873 41.6145C103.127 41.6848 102.564 41.6848 104.102 41.6848C106.525 41.6848 108.343 41.9425 109.835 40.4897C111.373 38.9901 112.142 36.9984 112.142 34.5147C112.142 32.2184 111.396 30.297 109.905 28.7505C108.46 27.2041 106.525 26.4308 104.102 26.4308C102.657 26.4308 101.328 26.7589 100.117 27.4149C98.9046 28.071 97.9725 28.8443 97.3199 29.7347L88.7203 27.8367L91.6568 0.913832H119.343V9.63037H99.8369L98.4386 21.4399C99.697 20.7369 101.095 20.1746 102.633 19.7528C104.172 19.2842 105.826 19.0733 107.597 19.1202C110.254 19.1202 112.678 19.7762 114.869 21.0884C117.059 22.3537 118.784 24.1111 120.042 26.3605C121.347 28.5631 122 31.1406 122 34.0929C122 37.4202 121.254 40.3492 119.763 42.8798C118.271 45.4104 116.22 47.4021 113.61 48.8548C111 50.2607 108.424 50.1199 104.975 50.1199Z" fill="#4D1653"/>
</svg>
